# xmcd
#
# Track frame offsets:
#	150
#	14205
#	25820
#	37857
#	50182
#	69397
#	90702
#	101225
#	113267
#	128935
#	143272
#	161337
#	173460
#	185350
#	198060
#	211782
#	229335
#	242532
#	258477
#	276655
#
# Disc length: 3949
#
# Revision: 1
# Processed by: cddbd v1.5.1PL0 Copyright (c) Steve Scherf et al.
# Submitted via: dBpowerAMP V4.0
# Normalized: r0:TDELIM( - )
#
DISCID=0d0f6b14
DTITLE=Love/Country - Crazy Little Thing Called Love
DYEAR=1900
DGENRE=
TTITLE0=Dolly Parton - I will always love you
TTITLE1=Crystal Gayle - Don't it make my brown eyes blue
TTITLE2=Tammy Wynette - stand by your man
TTITLE3=Patsy Cline - Crazy
TTITLE4=Ronnie Milsap - Lost In the fifties tonight
TTITLE5=Eva Cassidy - Fields Of Gold
TTITLE6=Jim Reeves - He'll have to go
TTITLE7=Glen Campbell - Galveston
TTITLE8=Gram Parsons - Brass buttons
TTITLE9=Nicolette Larson - Lotta Love
TTITLE10=Billy Swan - I can help
TTITLE11=Little feat - Long Distance love
TTITLE12=Skeeter Davis - The End Of the world
TTITLE13=Clint Black - Killin time
TTITLE14=Alabama - Face To Face
TTITLE15=Alan Jackson - I'll try
TTITLE16=Hal Ketchum - Stay Forever
TTITLE17=Randy Travis - Forever and ever amen
TTITLE18=Little Texas - My Love
TTITLE19=Joshua Kadison - Jessie
EXTD=
EXTT0=
EXTT1=
EXTT2=
EXTT3=
EXTT4=
EXTT5=
EXTT6=
EXTT7=
EXTT8=
EXTT9=
EXTT10=
EXTT11=
EXTT12=
EXTT13=
EXTT14=
EXTT15=
EXTT16=
EXTT17=
EXTT18=
EXTT19=
PLAYORDER=
